<svg width="31" height="22" viewBox="0 0 31 22" fill="none" xmlns="http://www.w3.org/2000/svg">
<g clip-path="url(#clip0_8033_1232)">
<path d="M0.510606 3.59103C0.620429 2.63428 1.0705 1.7476 1.78012 1.08997C2.48974 0.432347 3.41249 0.0467937 4.38292 0.00244141H21.4419C22.0535 0.0524325 22.6462 0.236465 23.1773 0.541238C23.7083 0.846012 24.1645 1.26391 24.5127 1.76475C24.8264 2.22098 25.0478 2.73331 25.1643 3.27324L30.1775 0.809302C30.2093 0.79353 30.2445 0.785535 30.28 0.785982C30.3156 0.786429 30.3505 0.795306 30.3819 0.811871C30.4133 0.828437 30.4402 0.85221 30.4604 0.881202C30.4806 0.910194 30.4936 0.943562 30.4981 0.978518C30.4981 1.9092 30.4981 2.83576 30.4981 3.77263C30.5001 3.86599 30.4735 3.95776 30.4219 4.03585C30.3702 4.11394 30.2959 4.1747 30.2087 4.21011C25.5967 6.47731 20.9839 8.74728 16.3704 11.02L30.1775 17.7906C30.2657 17.821 30.3431 17.8762 30.4 17.9495C30.457 18.0228 30.4911 18.1111 30.4981 18.2034C30.4981 19.1361 30.4981 20.0606 30.4981 21.0016C30.4984 21.0441 30.4867 21.0859 30.4644 21.1222C30.4421 21.1586 30.41 21.188 30.3718 21.2073C30.3335 21.2266 30.2906 21.235 30.2478 21.2314C30.2051 21.2279 30.1641 21.2126 30.1296 21.1873C28.4849 20.3619 26.8173 19.5839 25.1851 18.742C25.0755 19.133 24.9291 19.513 24.7479 19.8769C24.4714 20.3813 24.0918 20.823 23.6333 21.1737C23.1748 21.5244 22.6475 21.7764 22.0852 21.9137C21.709 21.992 21.3243 22.0232 20.9402 22.0066H5.04079C4.68271 22.0066 4.32254 22.0066 3.96654 21.9797C3.06898 21.8465 2.24184 21.4205 1.61594 20.7691C0.990029 20.1177 0.601081 19.278 0.510606 18.3829C0.510606 17.4811 0.510606 16.5772 0.510606 15.6755C0.525695 15.5626 0.572853 15.4563 0.646575 15.369C0.720298 15.2816 0.817546 15.2169 0.926983 15.1823C3.76251 13.7935 6.5918 12.3923 9.4315 11.0097C6.57098 9.59816 3.70839 8.19078 0.843709 6.78754C0.746319 6.74494 0.66344 6.67532 0.605075 6.58707C0.546709 6.49883 0.515345 6.39573 0.514767 6.29022C0.510603 5.39255 0.496033 4.49076 0.510606 3.59103ZM3.67091 3.6096C3.50019 3.9501 3.57931 4.34424 3.56474 4.71156C6.68757 6.24069 9.7875 7.77807 12.9041 9.29687C15.9839 7.78357 19.0651 6.27027 22.1477 4.75696C22.1477 4.4825 22.1602 4.20805 22.1477 3.93152C22.1114 3.68436 21.9859 3.45863 21.7945 3.29621C21.6031 3.13379 21.3587 3.0457 21.1067 3.0483H4.62233C4.4259 3.04178 4.2317 3.09118 4.06272 3.19066C3.89373 3.29013 3.75704 3.43552 3.66883 3.6096H3.67091ZM3.56474 17.3036C3.57931 17.6751 3.49811 18.0754 3.67924 18.42C3.77018 18.5895 3.90702 18.7305 4.07436 18.8271C4.24171 18.9237 4.43291 18.9721 4.62649 18.9669H21.1213C21.3041 18.9684 21.4839 18.9215 21.6424 18.8312C21.8008 18.7409 21.9321 18.6104 22.0228 18.453C22.2309 18.0919 22.1352 17.6586 22.156 17.2624C19.0685 15.7518 15.9853 14.2165 12.8916 12.7225C9.77292 14.2495 6.66328 15.7766 3.56265 17.3036H3.56474Z" fill="white"/>
</g>
<defs>
<clipPath id="clip0_8033_1232">
<rect width="30" height="22" fill="white" transform="translate(0.5)"/>
</clipPath>
</defs>
</svg>
