<svg width="40" height="40" viewBox="0 0 40 40" fill="none" xmlns="http://www.w3.org/2000/svg">
<g clip-path="url(#clip0_208_4221)">
<path d="M40 0H0V40H40V0Z" fill="url(#paint0_linear_208_4221)"/>
<path fill-rule="evenodd" clip-rule="evenodd" d="M31.2118 11.7689C30.5545 11.7689 30.1596 11.7727 29.5125 11.9691C28.7681 12.1952 27.7573 12.6648 26.8006 13.3324C26.0146 13.881 25.2495 14.5507 24.2846 16.5928C23.7644 17.6936 23.2048 19.1525 22.6029 20.7386C22.5732 20.8168 22.5435 20.8953 22.5136 20.9741C21.958 22.4391 21.3675 23.996 20.7952 25.2512C19.5304 28.0249 18.3185 29.4205 17.1323 30.48C16.0392 31.4562 14.955 32.1683 13.808 32.6438C12.678 33.1122 11.5998 33.3039 10.771 33.3957C9.94299 33.4874 9.27553 33.4874 8.7249 33.4873H8.69873V28.5759C9.25231 28.5759 9.68591 28.5744 10.2304 28.5141C10.7874 28.4524 11.3713 28.3372 11.927 28.1068C12.4657 27.8834 13.0905 27.5046 13.8606 26.8169C14.5375 26.2123 15.3426 25.3708 16.3264 23.2134C16.8299 22.1091 17.3687 20.6889 17.9499 19.1571C17.9702 19.1036 17.9905 19.05 18.0109 18.9962C18.5949 17.4571 19.2249 15.8044 19.8439 14.4943L21.914 15.4726L19.8439 14.4943C21.1575 11.7146 22.4693 10.3659 23.9897 9.30485C25.3393 8.36291 26.8133 7.65584 28.0855 7.26954L28.6683 9.18861L28.0855 7.26954C29.443 6.85735 30.4328 6.85739 31.1915 6.85742L31.2118 6.85742V11.7689Z" fill="white"/>
<path fill-rule="evenodd" clip-rule="evenodd" d="M20.3799 22.6009V17.6895H28.1557V22.6009H20.3799Z" fill="white"/>
</g>
<defs>
<linearGradient id="paint0_linear_208_4221" x1="7.08024" y1="0.60561" x2="7.08024" y2="40.6025" gradientUnits="userSpaceOnUse">
<stop stop-color="#D30A0B"/>
<stop offset="1" stop-color="#500100"/>
</linearGradient>
<clipPath id="clip0_208_4221">
<rect width="40" height="40" fill="white"/>
</clipPath>
</defs>
</svg>
